<?xml version="1.0" standalone="no"?>
<!DOCTYPE svg PUBLIC "-//W3C//DTD SVG 20010904//EN"
 "http://www.w3.org/TR/2001/REC-SVG-20010904/DTD/svg10.dtd">
<svg version="1.0" xmlns="http://www.w3.org/2000/svg"
 width="1024.000000pt" height="1024.000000pt" viewBox="0 0 1024.000000 1024.000000"
 preserveAspectRatio="xMidYMid meet">
<metadata>
Created by potrace 1.11, written by Peter Selinger 2001-2013
</metadata>
<g transform="translate(0.000000,1024.000000) scale(0.100000,-0.100000)"
fill="#000000" stroke="none">
<path d="M5080 8603 c-19 -2 -60 -9 -90 -15 -30 -7 -57 -12 -60 -13 -87 -18
-232 -112 -300 -195 -58 -69 -110 -161 -133 -235 -18 -58 -22 -93 -21 -205 0
-123 3 -141 28 -205 38 -99 69 -147 142 -225 l64 -68 -33 -58 c-96 -166 -118
-206 -135 -236 -11 -18 -90 -157 -177 -308 -87 -151 -199 -345 -248 -430 -49
-85 -101 -177 -117 -205 -15 -27 -115 -203 -223 -390 -196 -343 -258 -430
-327 -462 -14 -6 -41 -18 -61 -27 -101 -44 -240 -46 -332 -3 -29 13 -128 70
-222 127 -93 56 -183 111 -200 120 -87 50 -592 353 -602 362 -9 7 -8 19 3 51
17 49 41 189 38 232 -1 17 -4 57 -8 89 -29 240 -209 451 -451 528 -102 33
-280 32 -385 0 -71 -22 -165 -69 -193 -95 -6 -7 -25 -23 -42 -36 -53 -40 -125
-134 -160 -208 -141 -291 -46 -643 222 -827 129 -88 271 -120 451 -103 26 2
13 35 237 -568 149 -402 156 -420 189 -507 15 -37 48 -127 75 -200 116 -315
493 -1324 499 -1333 11 -16 5214 -15 5224 1 5 7 30 72 57 146 27 73 54 144 59
158 6 14 27 70 47 125 19 55 40 109 45 120 4 11 43 115 85 230 42 116 81 219
86 230 8 19 22 56 104 280 18 50 53 144 78 210 75 199 209 556 230 615 11 30
57 154 103 275 82 219 82 220 111 217 182 -17 325 18 458 113 304 217 367 647
136 935 -122 153 -280 235 -472 247 -304 19 -591 -181 -669 -467 -33 -119 -29
-267 10 -392 l18 -59 -52 -32 c-28 -18 -60 -37 -71 -44 -34 -20 -316 -189
-595 -356 -146 -87 -284 -167 -307 -178 -156 -71 -353 -38 -472 80 -31 31 -68
76 -82 101 -14 25 -112 196 -219 380 -106 184 -204 355 -218 380 -14 25 -59
103 -100 174 -41 72 -83 146 -94 165 -11 20 -80 140 -153 266 -73 127 -144
250 -157 275 -14 25 -58 101 -97 169 l-72 124 59 61 c58 61 106 130 135 196
36 82 42 117 42 245 0 107 -4 143 -22 200 -49 154 -171 303 -315 383 -48 27
-159 61 -222 68 -28 3 -60 6 -71 8 -11 1 -36 1 -55 -1z"/>
<path d="M2225 2503 c-40 -10 -106 -65 -127 -106 -21 -40 -22 -53 -23 -317 0
-274 0 -275 25 -324 15 -30 42 -61 68 -80 l44 -31 2894 -3 2894 -2 49 25 c27
13 59 38 71 55 42 59 47 101 46 370 -1 254 -1 256 -27 305 -27 54 -70 89 -128
105 -37 10 -5745 13 -5786 3z"/>
</g>
</svg>
